<svg width="247" height="75" viewBox="0 0 247 75" fill="none" xmlns="http://www.w3.org/2000/svg">
<path d="M73.64 52V23.68H77.48V52H73.64ZM96.7328 35.68L93.9328 37.8C93.0928 36.76 91.8528 35.92 90.0528 35.92C88.3728 35.92 86.8928 36.68 86.8928 38.04C86.8928 40.32 90.1328 40.64 91.7328 41C94.8528 41.76 97.2528 42.96 97.2528 46.52C97.2528 50.8 93.3328 52.48 89.5728 52.48C86.4528 52.48 84.1328 51.68 82.2528 49.12L84.9728 46.88C86.1328 48.04 87.4928 49.12 89.5728 49.12C91.4128 49.12 93.4128 48.36 93.4128 46.72C93.4128 44.56 90.4128 44.16 88.8528 43.8C85.7728 43.04 83.0528 42.04 83.0528 38.4C83.0528 34.44 86.6928 32.56 90.2528 32.56C92.7728 32.56 95.3728 33.44 96.7328 35.68ZM101.906 52V21.76H105.506V52H101.906ZM113.476 37.6L111.316 35.36C113.316 33.48 116.196 32.56 118.836 32.56C124.436 32.56 126.756 35.6 126.756 38.88V48.56C126.756 49.88 126.796 51 126.916 52H123.716C123.636 51.04 123.596 50.08 123.596 49.12H123.516C121.916 51.56 119.756 52.48 116.876 52.48C113.356 52.48 110.316 50.48 110.316 46.8C110.316 41.92 114.996 40.24 120.756 40.24H123.396V39.44C123.396 37.48 121.956 35.44 118.876 35.44C116.116 35.44 114.796 36.6 113.476 37.6ZM123.396 42.88H121.476C118.076 42.88 113.916 43.48 113.916 46.52C113.916 48.68 115.516 49.6 117.996 49.6C121.996 49.6 123.396 46.64 123.396 44.08V42.88ZM131.978 52V33.04H135.338V36H135.418C135.778 34.88 138.098 32.56 141.498 32.56C144.298 32.56 146.218 33.76 147.418 36.08C148.658 33.76 151.138 32.56 153.418 32.56C159.258 32.56 160.618 36.72 160.618 40.96V52H157.018V41.44C157.018 38.56 156.418 35.92 152.938 35.92C149.458 35.92 148.098 38.28 148.098 41.64V52H144.498V42.08C144.498 38.48 143.978 35.92 140.498 35.92C137.898 35.92 135.578 37.88 135.578 42.16V52H131.978ZM166.96 52V23.68H176.8C181.72 23.68 185.4 25.96 185.4 30.76C185.4 34 183.4 36.04 180.52 37V37.08C183.92 37.32 186.64 40.32 186.64 44.12C186.64 49.2 182.2 52 176.68 52H166.96ZM170.8 27.04V35.44H176.04C178.96 35.44 181.32 34.28 181.32 31.2C181.32 28.96 179.92 27.04 176.84 27.04H170.8ZM170.8 38.8V48.64H176.44C178.76 48.64 182.56 47.84 182.56 43.84C182.56 40.48 180.2 38.8 176.48 38.8H170.8ZM191.516 52V21.76H195.116V52H191.516ZM203.765 42.52C203.765 46.36 206.165 49.12 210.005 49.12C213.845 49.12 216.245 46.36 216.245 42.52C216.245 38.68 213.845 35.92 210.005 35.92C206.165 35.92 203.765 38.68 203.765 42.52ZM199.925 42.52C199.925 37 204.365 32.56 210.005 32.56C215.645 32.56 220.085 37 220.085 42.52C220.085 48.04 215.645 52.48 210.005 52.48C204.365 52.48 199.925 48.04 199.925 42.52ZM243.595 33.04V51.84C243.595 57.56 239.435 61.6 233.235 61.6C229.635 61.6 226.635 60.68 223.955 58.2L226.395 55.16C228.275 57.16 230.395 58.24 233.155 58.24C238.515 58.24 239.995 54.88 239.995 51.68V48.88H239.875C238.515 51.16 235.915 52.24 233.315 52.24C227.755 52.24 223.635 48.04 223.675 42.52C223.675 36.92 227.435 32.56 233.315 32.56C235.875 32.56 238.515 33.72 239.915 35.76H239.995V33.04H243.595ZM233.755 35.92C229.915 35.92 227.515 38.68 227.515 42.52C227.515 46.36 229.915 48.88 233.755 48.88C237.595 48.88 239.995 46.36 239.995 42.52C239.995 38.68 237.595 35.92 233.755 35.92Z" fill="#F5F5F5"/>
<g clip-path="url(#clip0_9_13)">
<path fill-rule="evenodd" clip-rule="evenodd" d="M39.2962 9.46975L39.7356 9.5137C40.0687 9.54395 40.3785 9.69766 40.604 9.94463C40.8296 10.1916 40.9547 10.514 40.9547 10.8485C40.9547 11.1829 40.8296 11.5053 40.604 11.7523C40.3785 11.9993 40.0687 12.153 39.7356 12.1832C36.4179 12.5458 33.4298 14.2156 31.2326 16.6874C29.4768 18.6489 28.3285 21.0781 27.9273 23.6798C27.5261 26.2816 27.8892 28.9439 28.9725 31.3432C30.0557 33.7425 31.8126 35.7755 34.0295 37.1951C36.2464 38.6148 38.828 39.36 41.4604 39.3401C44.7795 39.3583 47.9903 38.1601 50.486 35.972C52.9818 33.7839 54.5897 30.7574 55.0059 27.4645V27.4205C55.0498 27.0681 55.2318 26.7475 55.5119 26.5291C55.7921 26.3108 56.1474 26.2126 56.4999 26.256C56.8107 26.2961 57.0978 26.443 57.3123 26.6714C57.5267 26.8999 57.6551 27.1958 57.6754 27.5084L57.7633 28.5631L57.7963 29.6836C57.7963 35.0886 55.665 40.219 51.853 44.0311C49.9705 45.9167 47.7338 47.4115 45.2715 48.4296C42.8092 49.4477 40.17 49.9689 37.5055 49.9634C34.8429 49.9675 32.2057 49.4455 29.7454 48.4275C27.2852 47.4094 25.0502 45.9154 23.1691 44.0311C21.2768 42.1478 19.7764 39.9083 18.7545 37.442C17.7325 34.9757 17.2092 32.3313 17.2148 29.6616C17.2058 26.8442 17.7858 24.0561 18.9178 21.476C20.0497 18.896 21.7085 16.5811 23.7877 14.6798C25.8669 12.7785 28.3205 11.3329 30.9913 10.4357C33.662 9.53844 36.4908 9.20943 39.2962 9.46975ZM45.2835 21.1037L51.3256 21.0927H51.7651C52.5121 21.0927 53.1053 21.686 53.1053 22.422C53.1038 22.6427 53.049 22.8598 52.9458 23.0548C52.8425 23.2499 52.6938 23.4172 52.5121 23.5426L47.2938 27.3107L49.1724 33.0562L49.3152 33.4847C49.4228 33.8212 49.3931 34.1866 49.2326 34.5014C49.0722 34.8162 48.7939 35.0549 48.4583 35.1655C48.2421 35.2305 48.0134 35.2425 47.7916 35.2004C47.5698 35.1583 47.3614 35.0635 47.184 34.9238L42.0207 31.1557L37.132 34.7151L36.7695 34.9788C36.4822 35.1863 36.1244 35.2716 35.7744 35.216C35.4244 35.1604 35.1107 34.9684 34.9019 34.6821C34.7752 34.5024 34.6932 34.295 34.6626 34.0772C34.632 33.8594 34.6538 33.6375 34.7261 33.4298L36.7255 27.3107L31.8259 23.7733L31.4743 23.5096C31.1863 23.3024 30.9922 22.9895 30.9345 22.6394C30.8768 22.2893 30.9603 21.9306 31.1667 21.642C31.3035 21.4621 31.4819 21.3181 31.6867 21.2224C31.8915 21.1267 32.1164 21.0822 32.3422 21.0927H38.7469L40.6584 15.1824L40.7353 14.9297C40.966 14.2266 41.7241 13.8311 42.4271 14.0618C42.8666 14.2046 43.1632 14.5672 43.306 14.9956L45.2835 21.1037ZM48.3155 51.5343L51.6222 54.8521V57.181H22.2133V54.8521L25.531 51.5453L48.3155 51.5343ZM52.0507 58.0819H59.6529V65.6071H15.3582V58.0819H52.0507Z" fill="#F5F5F5"/>
</g>
<defs>
<clipPath id="clip0_9_13">
<rect width="75" height="75" fill="white"/>
</clipPath>
</defs>
</svg>
